<?xml version="1.0" encoding="UTF-8" standalone="no"?>
<svg xmlns="http://www.w3.org/2000/svg" viewBox="0 0 24 24">
<style>
	g path { stroke: none; }
	g.root { display: none; }
	g.root:target { display: inline; }
	g line { stroke: black; }
	g circle { stroke: black; }
	g polyline { stroke: black; }
</style>
<g class="root" id="appointment" data-name="appointment">
	<path d="M23.058 4.9V3.522c0-0.241-0.196-0.437-0.437-0.437h-0.708V2.192c0-0.241-0.196-0.437-0.437-0.437H1.744c-0.241 0-0.437 0.196-0.437 0.437v3.579h0.874V2.629h18.858v0.456H2.889c-0.241 0-0.437 0.196-0.437 0.437v2.249h0.874V3.96h18.858v0.94H17.66L15.841 6.506H0.872H0.618C0.278 6.506 0 6.784 0 7.124v14.503c0 0.34 0.278 0.618 0.618 0.618H23.38c0.34 0 0.618-0.278 0.618-0.618V7.652l0.002 0V4.9H23.058zM9.16 16.023H6.854v2.349H4.342v-2.349H2.036v-2.426h2.306V11.248h2.512v2.349H9.16V16.023z" />
</g>
<g class="root" id="appointment_2" data-name="appointment-2">
	<path d="M23.058 4.9V3.522c0-0.241-0.196-0.437-0.437-0.437h-0.708V2.192c0-0.241-0.196-0.437-0.437-0.437H1.744c-0.241 0-0.437 0.196-0.437 0.437v3.579h0.874V2.629h18.858v0.456H2.889c-0.241 0-0.437 0.196-0.437 0.437v2.249h0.874V3.96h18.858v0.94H17.66L15.841 6.506H0.872H0.618C0.278 6.506 0 6.784 0 7.124v14.503c0 0.34 0.278 0.618 0.618 0.618H23.38c0.34 0 0.618-0.278 0.618-0.618V7.652l0.002 0V4.9H23.058zM9.16 16.023H6.854v2.349H4.342v-2.349H2.036v-2.426h2.306V11.248h2.512v2.349H9.16V16.023z" />
</g>
<g class="root" id="close" data-name="close">
	<path d="M23.57 2.537a1.467 1.467 0 0 0 0-2.077l-0.027-0.024a1.473 1.473 0 0 0-2.08 0l-9.096 9.091a0.533 0.533 0 0 1-0.747 0l-9.096-9.091a1.457 1.457 0 0 0-2.067 0l-0.027 0.024a1.467 1.467 0 0 0 0 2.077l9.096 9.091a0.525 0.525 0 0 1 0 0.745l-9.096 9.091a1.467 1.467 0 0 0 0 2.077l0.027 0.024a1.457 1.457 0 0 0 2.067 0l9.096-9.091a0.533 0.533 0 0 1 0.747 0l9.096 9.091a1.473 1.473 0 0 0 2.08 0l0.027-0.024a1.467 1.467 0 0 0 0-2.077l-9.096-9.091a0.525 0.525 0 0 1 0-0.745Z" />
</g>
<g class="root" id="complete" data-name="complete">
	<path d="M12 0A12.013 12.013-4.991 0 0 0 12a12.013 12.013 0 0 0 12 12a12.013 12.013 0 0 0 12-12A12.013 12.013-4.991 0 0 12 0Zm6.654 9.555l-7.664 7.663a1.262 1.262 0 0 1-0.886 0.367v0.519l-0.011-0.519a1.262 1.262 0 0 1-0.89-0.383l-3.866-4.006a1.254 1.254 0 0 1 0.032-1.771a1.247 1.247 0 0 1 0.869-0.351a1.242 1.242 0 0 1 0.902 0.383l2.981 3.089L16.879 7.785a1.246 1.246 0 0 1 0.886-0.367a1.246 1.246 0 0 1 0.886 0.367a1.255 1.255 0 0 1 0 1.773Z" />
</g>
<g class="root" id="date" data-name="date">
	<path id="Path_166" class="cls-1" transform="translate(0 0)" d="M23.16 3.057a2.886 2.886 0 0 0-2.138-0.891H18.884V1.4A1.158 1.158 0 0 0 17.815 0.242H16.889a1.158 1.158 0 0 0-1.158 1.158v0.766H8.302V1.4A1.194 1.194 0 0 0 7.126 0.242H6.289a1.176 1.176 0 0 0-1.158 1.176v0.748H3.064A3.064 3.064 0 0 0 0 5.213H0v15.463A3.046 3.046 0 0 0 3.047 23.758H16.889a3.171 3.171 0 0 0 2.245-0.944l3.919-3.919a3.118 3.118 0 0 0 0.944-2.245V5.248A2.957 2.957 0 0 0 23.16 3.057ZM1.907 20.658V8.312H22.126V16.044H18.474a2.138 2.138 0 0 0-2.138 2.138h0v3.563H3.064A1.176 1.176 0 0 1 1.907 20.658Z" />
</g>
<g class="root" id="datetime" data-name="datetime">
	<path d="M19.06 1.412H17.648v-0.706a0.706 0.706 0 0 0-0.706-0.705a0.706 0.706 0 0 0-0.705 0.705v0.706H7.76v-0.706a0.706 0.706 0 0 0-0.705-0.705a0.706 0.706 0 0 0-0.706 0.705v0.706H4.941a4.234 4.234 0 0 0-4.235 4.235v14.118A4.234 4.234-19.81 0 0 4.941 24H19.06a4.234 4.234 0 0 0 4.235-4.235v-14.118A4.234 4.234-19.81 0 0 19.06 1.412ZM12.001 19.765a7.06 7.06 0 0 1-4.991-2.068a7.061 7.061 0 0 1-2.068-4.991a7.06 7.06 0 0 1 2.068-4.991a7.061 7.061 0 0 1 4.991-2.068a7.06 7.06 0 0 1 4.991 2.068a7.061 7.061 0 0 1 2.068 4.991a7.06 7.06 0 0 1-2.068 4.991A7.061 7.061-19.81 0 1 12.001 19.765Zm3.53-7.059a0.708 0.708 0 0 1-0.208 0.498a0.704 0.704 0 0 1-0.498 0.207H12.001a0.704 0.704 0 0 1-0.705-0.705v-3.53a0.705 0.705 0 0 1 0.705-0.705a0.705 0.705 0 0 1 0.705 0.705v2.824h2.118a0.705 0.705 0 0 1 0.706 0.705Z" />
</g>
<g class="root" id="education" data-name="education">
	<path d="M20.811 23.287C17.904 23.769 14.945 24 12.001 24c-2.944 0-5.902-0.231-8.81-0.713c-0.582-0.097-0.989-0.622-0.936-1.209c0.178-1.957 0.501-5.24 1.093-6.025c0.374-0.497 1.086-0.939 1.93-1.346c-0.113 0.29-0.189 0.601-0.226 0.928c-0.135 1.197 0.27 2.456 1.015 3.554c-0.382 0.738 0.15 1.639 0.999 1.639c0.622 0 1.125-0.503 1.125-1.123c0-0.728-0.682-1.26-1.387-1.092c-0.597-0.895-0.931-1.916-0.823-2.874c0.09-0.802 0.494-1.474 1.165-1.826c0.322-0.127 0.642-0.249 0.953-0.37c0.49 1.503 1.543 4.18 2.637 6.162c0.074-0.973 0.225-1.466 0.521-2.893c-0.213-0.432-0.468-0.681-0.538-1.194c-0.14-1.019 2.699-1.019 2.558 0c-0.07 0.514-0.324 0.762-0.538 1.194c0.296 1.427 0.447 1.92 0.521 2.891c1.094-1.981 2.148-4.658 2.637-6.16c0.314 0.122 0.638 0.247 0.962 0.373c0.759 0.378 0.908 0.7 0.769 1.56c-1.122-0.038-2.062 0.642-2.334 1.824l-0.412 1.787c-0.153 0.663 0.142 1.343 0.708 1.687c0.252 0.577 1.102 0.499 1.241-0.118c0.113-0.506-0.38-0.932-0.86-0.76c-0.163-0.16-0.23-0.376-0.178-0.599l0.412-1.787c0.099-0.433 0.32-0.727 0.594-0.898c0.879-0.551 2.499 0.051 2.177 1.521l-0.393 1.792c-0.05 0.225-0.199 0.39-0.416 0.464c-0.362-0.36-0.989-0.186-1.102 0.321c-0.08 0.352 0.143 0.703 0.497 0.783c0.212 0.048 0.423-0.013 0.575-0.145c0.035-0.004 0.069-0.008 0.104-0.014c0.623-0.109 1.125-0.594 1.259-1.21l0.393-1.792c0.261-1.19-0.309-2.213-1.35-2.652c0.067-0.395 0.083-0.735 0.041-1.034c0.904 0.425 1.673 0.889 2.067 1.412c0.592 0.786 0.915 4.07 1.093 6.025C21.8 22.663 21.393 23.189 20.811 23.287zM6.239 7.425c-0.185-0.82-0.125-1.828 0.767-2.198C6.588 2.48 8.185 0 11.986 0c3.802 0 5.478 2.47 4.995 5.222c0.905 0.361 0.969 1.377 0.783 2.204c-0.186 0.821-0.691 1.744-1.17 2.204c-0.661 2.055-2.28 3.916-4.592 3.916c-2.313 0-3.931-1.861-4.592-3.916C6.93 9.17 6.424 8.246 6.239 7.425zM7.443 7.091c0.373 1.811 1.204 1.358 1.342 1.93c0.436 1.473 1.518 3.027 3.217 3.027c1.713 0 2.797-1.577 3.227-3.062c0.157-0.54 0.929-0.104 1.298-1.896c0.116-0.562-0.155-0.714-0.472-0.632c-0.195 0.43-0.297 0.926-0.348 1.162c-0.083 0.025-0.238 0.082-0.327 0.105c0.147-0.859 0.081-1.287-0.114-2.04c-0.067-0.259-0.143-0.57-0.218-0.991c-0.372 0.258-2.417 1.606-4.615 1.822c0.869-0.618 1.232-1.039 1.553-1.568c-0.802 0.432-1.953 1.109-3.319 0.955c0.004 0.666-0.24 0.705-0.068 1.822c-0.089-0.023-0.251-0.08-0.335-0.105c-0.051-0.235-0.153-0.731-0.347-1.162C7.6 6.376 7.327 6.528 7.443 7.091z" />
</g>
<g class="root" id="globe" data-name="globe">
	<path d="M12 21.549a9.36 9.36 0 0 1-5.052-1.464l0.48-2.256a2.671 2.671 0 0 0-0.18-1.644l-0.732-1.584a0.587 0.587 0 0 0-0.456-0.336l-2.652-0.372a0.319 0.319 0 0 1-0.204-0.528l0.456-0.564a0.632 0.632 0 0 1 0.528-0.204l0.996 0.156a0.856 0.856 0 0 0 0.348-0.024l1.344-0.3a0.253 0.253 0 0 0 0.12-0.048l0.888-0.432a0.566 0.566 0 0 0 0.324-0.432l0.36-2.652a0.564 0.564 0 0 0-0.36-0.612l-0.456-0.168a0.6 0.6 0 0 1-0.396-0.528a0.586 0.586 0 0 1 0.528-0.612l0.66-0.048a0.583 0.583 0 0 0 0.528-0.612l-0.048-0.804l-0.084-1.596a0.536 0.536 0 0 0-0.372-0.504l-0.36-0.12a9.394 9.394 0 0 1 3.768-0.756a8.304 8.304 0 0 1 2.124 0.252l0.072 1.416v0.048l-0.18 1.764a0.258 0.258 0 0 0 0.048 0.18l0.204 0.3a0.253 0.253 0 0 0 0.384 0.048l0.528-0.48a0.277 0.277 0 0 1 0.432 0.132l0.024 0.072a0.24 0.24 0 0 0 0.228 0.18l0.6 0.024a0.161 0.161 0 0 0 0.108-0.024l0.504-0.204a0.246 0.246 0 0 1 0.324 0.324l-0.276 0.912a0.232 0.232 0 0 1-0.228 0.18l-0.672 0.024h-0.084l-0.852-0.252a0.454 0.454 0 0 0-0.18 0l-0.408 0.18a0.298 0.298 0 0 1-0.204 0l-0.528-0.252a0.258 0.258 0 0 0-0.228 0.024l-0.684 0.48a0.226 0.226 0 0 0-0.096 0.204l0.096 0.78a0.215 0.215 0 0 1-0.144 0.252l-0.504 0.228a0.26 0.26 0 0 0-0.084 0.408l0.36 0.324a0.346 0.346 0 0 0 0.228 0.072l0.648-0.144a0.329 0.329 0 0 1 0.156 0.024l0.3 0.12a5.488 5.488 0 0 1 0.48 0.36a0.272 0.272 0 0 0 0.384-0.048a0.34 0.34 0 0 1 0.18-0.132l0.504-0.048a0.208 0.208 0 0 0 0.144-0.072l0.06-0.06a0.24 0.24 0 0 1 0.396 0.108l0.252 0.708c0.024 0.024 0.024 0.048 0.048 0.072l0.288 0.384a0.274 0.274 0 0 1-0.024 0.348l-0.708 0.66a0.26 0.26 0 0 1-0.36 0l-0.684-0.636c-0.024-0.024-0.048-0.024-0.072-0.048l-0.96-0.408c-0.024 0-0.048-0.024-0.072-0.024l-1.272-0.12h-0.096l-1.056 0.3a1.015 1.015 0 0 0-0.708 0.684l-0.252 0.78a0.922 0.922 0 0 0 0.048 0.756l0.396 0.864a1.1 1.1 0 0 0 0.864 0.6l0.96 0.108c0.024 0 0.072 0.024 0.096 0.024l0.54 0.3a0.247 0.247 0 0 1 0.12 0.204l0.072 0.96a2.771 2.771 0 0 0 0.288 0.96l0.456 0.852a0.277 0.277 0 0 0 0.072 0.108l0.756 0.552a0.308 0.308 0 0 0 0.432-0.072l0.252-0.336c0.024-0.048 0.048-0.072 0.072-0.12l0.552-1.392a0.072 0.072 0 0 1 0.036-0.072l0.168-2.004c0-0.024 0.036-0.048 0.036-0.072l0.396-0.828a0.284 0.284 0 0 1 0.252-0.156l1.368 0.18a0.36 0.36 0 0 0 0.228-0.084l0.252-0.276a0.272 0.272 0 0 0 0.024-0.324l-0.66-0.864a0.275 0.275 0 0 1 0.156-0.408l0.252-0.048c0.048 0 0.432-0.024 0.552-0.048h0.048l0.612 0.096a0.264 0.264 0 0 1 0.252 0.288l-0.156 1.74a0.157 0.157 0 0 0 0.036 0.12l0.48 1.248a9.574 9.574 0 0 1-8.772 5.784h0Zm0-21.549a12 12 0 1 0 12 12A12 12-5645.373 0 0 12 0Z" />
</g>
<g class="root" id="home" data-name="home">
	<path style="stroke-width: 2;" d="M23.871 13.328l-11.548-11.974a0.437 0.437 0 0 0-0.32-0.137h0a0.443 0.443 0 0 0-0.328 0.133l-11.548 11.98a0.448 0.448 0 0 0 0.008 0.635a0.472 0.472 0 0 0 0.328 0.121a0.448 0.448 0 0 0 0.312-0.136l1.501-1.557V22.331a0.456 0.456 0 0 0 0.456 0.449h6.332a0.448 0.448 0 0 0 0.448-0.449V15.363h4.968v6.969a0.456 0.456 0 0 0 0.456 0.449h6.332a0.456 0.456 0 0 0 0.456-0.449V12.39l1.493 1.553a0.464 0.464 0 0 0 0.32 0.139h0.008a0.445 0.445 0 0 0 0.328-0.755h0Zm-8.935 1.137h-5.871a0.448 0.448 0 0 0-0.448 0.448v6.972h-5.439V11.452l8.816-9.151l8.824 9.151V21.883h-5.439v-6.972a0.448 0.448 0 0 0-0.448-0.448h0Z" />
</g>
<g class="root" id="location_pin" data-name="location-pin">
	<path d="M12.134 0.001a9.118 9.118 0 0 0-1.521 0.107a8.949 8.949 0 0 0-7.558 8.705C2.974 13.756 8.757 20.897 11.859 24c3.908-3.908 9.01-9.97 9.087-14.912l-5.109-0.08h0a3.959 3.959 0 0 1-1.395 2.187a3.959 3.959 0 0 1-2.451 0.852a3.959 3.959 0 0 1-2.792-1.161a3.959 3.959 0 0 1-1.154-2.795a3.959 3.959 0 0 1 1.16-2.792a3.959 3.959 0 0 1 2.795-1.154a3.959 3.959 0 0 1 2.793 1.16a3.952 3.952 0 0 1 1.154 2.795l-3.952 0l3.952 0h0a3.866 3.866 0 0 1-0.112 0.907l5.107 0.077a8.95 8.95 0 0 0-8.813-9.083Z" />
</g>
<g class="root" id="phone" data-name="phone">
	<path d="M21.594 17.916c-1.164-0.432-2.28-0.912-3.408-1.44-1.068-0.528-2.148-1.056-3.168-1.68l-1.776 3.216a23.269 23.269 0 0 1-7.092-9.924l3.456-0.72a42.32 42.32 0 0 1-0.888-7.368l-4.164 0.144l-2.148 0.048a26.015 26.015 0 0 0 17.088 23.808l0.708-2.064Z" />
</g>
<g class="root" id="procedure" data-name="procedure">
	<path d="M24 8.491c0 5.415-7.593 12.162-12 14.418c-3.334-1.707-8.49-5.983-10.804-10.31h2.623c0.241 0 0.435-0.151 0.542-0.35l0.869-1.618l1.403 3.969c0.2 0.568 0.977 0.494 1.141-0.077L9.39 8.926l1.707 8.427c0.128 0.632 1.029 0.628 1.161 0.004l1.602-7.575l1.206 2.48c0.103 0.211 0.314 0.335 0.535 0.336l1.645 0.001c0.238 0.61 0.831 1.042 1.525 1.042c0.903 0 1.636-0.733 1.636-1.636c0-0.903-0.733-1.636-1.636-1.636c-0.694 0-1.286 0.431-1.524 1.041h-1.274l-1.796-3.694c-0.255-0.524-1.003-0.422-1.119 0.13l-1.366 6.465l-1.618-7.987c-0.122-0.602-0.978-0.643-1.15-0.047l-1.784 6.186L5.903 8.97c-0.169-0.478-0.837-0.542-1.083-0.083l-1.356 2.523H0.634C0.23 10.417 0 9.434 0 8.491C0 1.98 7.636-2.054 12 4.244C16.364-2.02 24 1.98 24 8.491z" />
</g>
<g class="root" id="search" data-name="search">
	<path d="M23.234 21.861L17.522 15.92c1.468-1.746 2.274-3.942 2.274-6.23c0-5.343-4.347-9.69-9.69-9.69s-9.69 4.347-9.69 9.69s4.347 9.69 9.69 9.69c2.006 0 3.918-0.604 5.552-1.754l5.756 5.986c0.24 0.25 0.564 0.387 0.91 0.387c0.328 0 0.639-0.126 0.876-0.352C23.7 23.164 23.716 22.364 23.234 21.861zM10.104 2.529c3.95 0 7.163 3.213 7.163 7.163s-3.213 7.163-7.163 7.163s-7.163-3.213-7.163-7.163S6.156 2.529 10.104 2.529z" />
</g>
<g class="root" id="treatments" data-name="treatments">
	<path d="M7.634 18.387c0.282 0.816 0.299 2.02 0.232 3.087H3.544c0.111-0.863 0.181-1.933-0.068-2.384c-0.409-0.739-3.318-3.749-3.47-5.486c-0.153-1.738 3.156-7.219 3.55-7.809c0.394-0.588 0.849-1.048 1.321-0.652c0.472 0.396-0.309 1.863-0.309 1.863s0.505-0.493 0.721-0.233c0.343 0.414-0.227 1.615-0.227 1.615s0.241-0.201 0.462 0.156c0.306 0.495-1.039 2.729-1.039 2.729s-0.08-0.317-0.436-0.731c-0.509-0.589-1.557-0.425-2.034 0.414c-0.415 0.727-0.58 2.167 0.05 3.879c0.344 0.934 1.104 2.097 1.448 2.292c0.39 0.222 0.846-0.15 0.283-0.704c-0.79-0.778-1.496-2.812-1.464-4.032c0.033-1.219 0.609-1.606 1.102-1.416c0.765 0.294 0.562 0.917 0.825 2.42C4.521 14.901 7.016 16.601 7.634 18.387zM23.996 13.207c0.141-1.739-3.205-7.198-3.602-7.785c-0.397-0.587-0.855-1.043-1.326-0.643c-0.469 0.399 0.322 1.861 0.322 1.861s-0.508-0.49-0.722-0.228c-0.34 0.416 0.238 1.614 0.238 1.614s-0.243-0.199-0.461 0.158c-0.303 0.497 1.058 2.723 1.058 2.723s0.077-0.318 0.431-0.733c0.505-0.592 1.554-0.436 2.037 0.4c0.42 0.724 0.595 2.163-0.024 3.879c-0.338 0.936-1.091 2.103-1.432 2.302c-0.388 0.225-0.848-0.144-0.288-0.702c0.785-0.782 1.476-2.822 1.436-4.042c-0.04-1.219-0.619-1.601-1.112-1.408c-0.763 0.3-0.555 0.921-0.808 2.425c-0.253 1.505-2.738 3.221-3.344 5.011c-0.307 0.907-0.283 2.29-0.185 3.433h4.352c-0.141-0.898-0.286-2.237-0.003-2.757C20.966 17.975 23.856 14.946 23.996 13.207zM8.364 8.259C8.27 8.264 8.021 8.278 8.364 8.259C8.412 8.256 8.399 8.257 8.364 8.259c0.17-0.01 0.334-0.071 0.469-0.174c-0.033 0.277-0.045 0.557-0.059 0.835c1.036 0.017 2.071 0.036 3.107 0.053c0.101 0.002 0.202 0.004 0.302 0.005c0.004-0.584 0.043-1.161 0.116-1.74c0.007-0.055 0.085-0.468 0.057-0.473c-0.057-0.012-0.113-0.023-0.169-0.036c-0.587-0.122-1.173-0.243-1.76-0.365c-0.339-0.07-0.679-0.14-1.018-0.211c-0.069-0.014-0.139-0.029-0.208-0.043c-0.027-0.006-0.177 0.732-0.19 0.801c-0.38-0.535-1.222-0.444-1.481 0.156C7.282 7.642 7.741 8.295 8.364 8.259zM10.837 15.935c0.015 0.035 0.153 0.393 0.181 0.382c0.05-0.019 0.1-0.038 0.15-0.058c0.233-0.09 0.466-0.18 0.699-0.27c0.606-0.234 1.212-0.468 1.817-0.702c0.128-0.049 0.255-0.099 0.383-0.148c0.024-0.01 0.047-0.018 0.071-0.028c0.007-0.003-0.084-0.231-0.089-0.247c-0.297-0.777-0.668-1.513-1.055-2.247c-0.914 0.492-1.828 0.985-2.742 1.476c-0.103 0.056-0.205 0.11-0.308 0.166c0.072 0.131 0.143 0.263 0.217 0.393c-0.646-0.046-1.116 0.645-0.828 1.229C9.628 16.481 10.499 16.512 10.837 15.935zM10.837 15.935C10.698 16.173 10.848 15.958 10.837 15.935L10.837 15.935zM14.499 16.266c-0.989 0.28-1.979 0.56-2.967 0.839c-0.066 0.018-0.132 0.037-0.199 0.057c0.035 0.109 0.071 0.219 0.104 0.329c-0.507-0.21-1.093 0.123-1.172 0.665c-0.076 0.527 0.363 1.007 0.895 0.976c-0.107 0.006-0.308 0.018 0.001 0c0.084-0.005 0.056-0.003 0.001 0c0.236-0.014 0.459-0.129 0.609-0.311c0.009 0.049 0.076 0.51 0.096 0.508c0.055-0.005 0.11-0.01 0.165-0.014c0.259-0.022 0.519-0.044 0.779-0.067c0.619-0.053 1.239-0.107 1.859-0.159c0.08-0.007 0.158-0.013 0.238-0.02c0.038-0.003-0.018-0.547-0.024-0.61C14.817 17.718 14.678 16.988 14.499 16.266zM9.244 4.263C9.157 4.246 8.928 4.198 9.244 4.263C9.289 4.273 9.277 4.27 9.244 4.263c0.157 0.033 0.322 0.017 0.47-0.043c-0.098 0.245-0.178 0.496-0.258 0.747c0.94 0.27 1.88 0.54 2.82 0.808c0.091 0.026 0.183 0.053 0.275 0.079c0.146-0.532 0.324-1.047 0.532-1.558c0.019-0.048 0.193-0.405 0.168-0.418c-0.049-0.025-0.097-0.049-0.146-0.074c-0.505-0.254-1.01-0.509-1.515-0.763c-0.292-0.147-0.584-0.294-0.876-0.442c-0.06-0.03-0.12-0.06-0.18-0.09c-0.023-0.012-0.341 0.624-0.37 0.684c-0.215-0.58-1.005-0.705-1.389-0.22C8.409 3.437 8.667 4.144 9.244 4.263zM9.371 12.95c0.014 0.041 0.029 0.082 0.043 0.123c0.976-0.359 1.952-0.717 2.928-1.076c0.083-0.031 0.165-0.06 0.249-0.091c0.012-0.005 0.085-0.02 0.091-0.034c0.01-0.02-0.037-0.109-0.046-0.133c-0.024-0.067-0.046-0.134-0.067-0.204c-0.047-0.151-0.096-0.303-0.129-0.458c-0.07-0.299-0.125-0.598-0.172-0.901c-0.011-0.067-0.016-0.135-0.024-0.204c-0.002-0.017 0-0.126-0.014-0.135c-0.004-0.003-0.023 0.002-0.027 0.003c-0.063 0.006-0.127 0.012-0.19 0.018c-0.257 0.025-0.516 0.05-0.773 0.075c-0.609 0.06-1.218 0.118-1.827 0.178c-0.184 0.018-0.369 0.036-0.553 0.054c-0.052 0.005-0.064-0.01-0.06 0.047c0.024 0.283 0.055 0.565 0.097 0.847c-0.287-0.252-0.72-0.282-1.038-0.07c-0.293 0.196-0.439 0.561-0.359 0.904c0.078 0.339 0.365 0.603 0.709 0.653c0.367 0.053 0.735-0.144 0.895-0.478c0.079 0.291 0.168 0.576 0.262 0.862C9.362 12.925 9.363 12.929 9.371 12.95zM11.952 20.237c0.005 0.106 0.01 0.212 0.015 0.318c0.001 0.014 0.002 0.036 0.003 0.064c0.002 0.055 0.004 0.109 0.006 0.164c-0.41-0.33-1.034-0.204-1.284 0.255c-0.031 0.056-0.176 0.452-0.079 0.452c0.109 0 0.219 0 0.327 0c0.411 0 0.821 0 1.232 0c0.615 0 1.232 0 1.847 0c0.233 0 0.466 0 0.698 0c0.021 0 0.042 0 0.064 0c0.037 0 0.032-0.136 0.036-0.167c0.039-0.296 0.064-0.592 0.086-0.89c0.004-0.055 0.009-0.109 0.012-0.164c-0.977-0.011-1.955-0.022-2.932-0.033C11.974 20.237 11.962 20.237 11.952 20.237zM11.97 20.62c-0.001-0.021-0.002-0.043-0.003-0.064C11.962 20.457 11.972 20.663 11.97 20.62z" />
</g>
</svg>